<?xml version="1.0" standalone="no"?>
<!DOCTYPE svg PUBLIC "-//W3C//DTD SVG 20010904//EN"
 "http://www.w3.org/TR/2001/REC-SVG-20010904/DTD/svg10.dtd">
<svg version="1.0" xmlns="http://www.w3.org/2000/svg"
 width="300.000000pt" height="300.000000pt" viewBox="0 0 300.000000 300.000000"
 preserveAspectRatio="xMidYMid meet">
<metadata>
Created by potrace 1.10, written by Peter Selinger 2001-2011
</metadata>
<g transform="translate(0.000000,300.000000) scale(0.100000,-0.100000)"
fill="#000000" stroke="none">
<path d="M0 1500 l0 -1500 1500 0 1500 0 0 1500 0 1500 -1500 0 -1500 0 0
-1500z m1598 770 l102 -65 0 -252 0 -252 -57 -11 c-32 -6 -68 -14 -80 -17
l-23 -5 0 221 0 220 -37 26 -38 25 -3 -257 -3 -258 -79 -31 -80 -31 0 346 0
346 72 47 c71 47 73 47 98 30 15 -9 72 -46 128 -82z m-378 -455 l0 -405 -120
0 -120 0 0 -175 0 -175 -80 0 -80 0 0 450 0 450 198 130 c108 71 198 130 200
130 1 0 2 -182 2 -405z m843 152 l117 -77 0 -165 0 -165 -80 0 -80 0 0 119 0
118 -40 27 c-22 14 -41 26 -42 26 -2 0 -2 -153 0 -340 l3 -340 39 0 40 0 0
120 0 120 80 0 80 0 0 -175 0 -175 -200 0 -200 0 0 545 0 545 83 -53 c45 -30
135 -88 200 -130z m-342 -329 c-69 -92 -150 -229 -173 -292 l-23 -61 -7 60
c-5 33 -6 66 -3 74 6 16 -31 -11 -161 -115 -142 -115 -201 -188 -179 -223 3
-6 22 -11 42 -11 20 0 34 -3 31 -6 -10 -10 -95 -6 -116 5 -75 40 0 209 175
391 l73 78 -67 -4 -68 -4 60 28 c85 40 205 79 332 107 59 13 112 24 116 24 4
1 -10 -23 -32 -51z m-21 -323 l0 -255 -81 0 -82 0 5 113 c4 95 8 121 32 172
25 57 118 225 124 225 1 0 2 -115 2 -255z m-240 -105 l0 -150 -80 0 -80 0 0
85 0 84 78 65 c42 36 78 65 80 66 1 0 2 -67 2 -150z m-1190 -255 c7 -9 16 -33
20 -55 7 -39 7 -40 -21 -40 -25 0 -29 4 -29 29 0 33 -11 44 -34 35 -14 -5 -16
-23 -14 -123 3 -108 4 -116 23 -116 16 0 21 8 23 38 3 33 6 37 30 37 26 0 27
-2 24 -45 -6 -76 -70 -108 -126 -64 -26 20 -26 22 -26 150 0 116 2 131 20 149
24 24 91 27 110 5z m304 -7 c13 -18 16 -51 16 -149 0 -126 0 -128 -26 -148
-50 -40 -108 -19 -125 43 -17 63 -7 231 16 256 26 29 98 28 119 -2z m256 -70
c13 -51 25 -96 29 -100 3 -4 5 38 3 92 l-3 100 25 0 26 0 0 -165 0 -165 -29 0
c-28 0 -30 3 -49 78 -12 42 -24 91 -27 107 -4 17 -9 37 -12 45 -3 8 -5 25 -4
37 1 11 -3 24 -10 28 -8 6 -10 -2 -5 -31 4 -22 10 -91 13 -154 l5 -115 -26 0
-26 0 0 168 0 167 34 0 34 0 22 -92z m353 75 c8 -10 19 -30 22 -45 7 -26 5
-28 -24 -28 -21 0 -29 4 -25 13 3 8 -2 20 -11 27 -13 11 -19 11 -32 -2 -21
-22 -9 -53 43 -105 23 -24 46 -57 49 -74 19 -85 -72 -143 -130 -84 -16 15 -25
36 -25 55 0 25 4 30 25 30 20 0 25 -5 25 -25 0 -32 28 -45 46 -21 17 24 9 42
-42 98 -60 64 -70 121 -28 162 21 22 87 21 107 -1z m219 -125 c3 -135 4 -143
23 -143 19 0 20 8 23 143 l3 142 27 0 27 0 -5 -154 c-3 -85 -7 -156 -10 -159
-35 -31 -79 -33 -114 -6 l-26 20 0 150 0 149 25 0 24 0 3 -142z m307 0 l-1
-143 41 0 c37 0 41 -2 41 -25 0 -25 -1 -25 -70 -22 l-70 4 0 164 0 164 30 0
31 0 -2 -142z m341 117 c0 -20 -5 -25 -25 -25 l-25 0 0 -140 0 -140 -31 0 -31
0 4 140 3 140 -27 0 c-23 0 -28 4 -28 25 0 25 1 25 80 25 79 0 80 0 80 -25z
m190 -142 l0 -168 -25 0 -25 0 0 168 0 167 25 0 25 0 0 -167z m239 89 c12 -43
21 -86 21 -95 0 -9 4 -18 8 -21 4 -2 6 40 4 95 l-4 99 26 0 26 0 0 -168 0
-169 -29 5 c-27 4 -30 9 -56 110 -15 59 -29 114 -32 122 -3 8 -5 25 -4 37 1
11 -3 24 -8 28 -7 4 -11 -5 -11 -24 0 -16 5 -33 10 -36 6 -4 10 -56 10 -123
l0 -117 -25 0 -25 0 0 168 0 167 34 0 c34 0 34 0 55 -78z m361 58 c12 -12 20
-33 20 -55 0 -30 -3 -35 -24 -35 -21 0 -25 6 -28 33 -2 24 -8 32 -23 32 -19 0
-20 -7 -20 -120 0 -113 1 -120 20 -120 17 0 20 8 23 48 2 33 0 47 -7 42 -7 -4
-11 4 -11 19 0 23 4 26 35 26 l35 0 0 -70 c0 -62 -3 -74 -25 -95 -13 -14 -34
-25 -45 -25 -24 0 -61 18 -72 34 -4 6 -8 69 -8 140 0 107 3 133 17 148 23 25
87 24 113 -2z"/>
<path d="M1379 2302 l-54 -38 -2 -322 c-1 -177 2 -322 5 -322 4 0 30 8 57 18
l50 18 2 242 c0 134 4 249 7 257 3 8 12 15 21 15 19 0 83 -41 89 -57 3 -7 6
-103 6 -214 l2 -201 36 5 c86 14 77 -13 79 238 2 150 -1 231 -8 246 -11 21
-206 153 -226 153 -5 0 -34 -17 -64 -38z"/>
<path d="M1109 2127 c-84 -53 -205 -133 -245 -161 -21 -14 -21 -20 -21 -425 0
-225 2 -421 4 -435 5 -24 10 -26 53 -26 59 0 60 1 61 184 0 107 4 139 15 151
12 11 40 15 119 15 l103 0 2 375 c0 206 -1 375 -3 375 -2 0 -42 -24 -88 -53z
m-29 -382 c0 -172 -1 -185 -19 -195 -11 -5 -32 -10 -48 -10 -35 0 -54 28 -53
78 0 20 1 73 1 117 2 124 3 129 27 159 12 16 22 26 22 22 0 -4 8 -2 18 3 9 6
25 11 35 11 16 0 17 -15 17 -185z"/>
<path d="M1018 1893 l-38 -26 0 -153 0 -154 40 0 40 0 0 180 c0 99 -1 180 -2
179 -2 0 -20 -12 -40 -26z"/>
<path d="M1801 1594 l0 -516 162 6 c89 3 168 5 175 6 9 0 12 36 12 148 l0 147
-53 0 -52 0 -3 -105 c-3 -117 -10 -130 -68 -130 -66 0 -66 -4 -62 359 2 180 7
332 12 339 13 21 41 13 80 -20 l36 -33 1 -102 1 -103 54 0 55 0 0 118 c0 142
-1 176 -4 177 -1 1 -68 45 -148 98 -81 54 -152 97 -158 97 -6 0 -11 4 -11 9 0
5 -6 11 -14 14 -13 5 -15 -65 -15 -509z"/>
<path d="M1610 1640 c-14 -4 -59 -17 -100 -29 -42 -11 -93 -27 -114 -36 -36
-15 -37 -17 -20 -30 21 -15 31 0 -113 -166 -86 -99 -136 -192 -131 -246 l3
-38 18 37 c19 37 101 120 186 188 25 19 60 49 80 65 40 34 76 55 91 55 6 0 15
-12 21 -27 10 -28 10 -28 43 32 35 65 74 126 105 165 11 14 21 28 21 33 0 9
-58 8 -90 -3z"/>
<path d="M1657 1463 c-8 -10 -32 -53 -52 -96 -30 -65 -37 -92 -42 -167 -7
-107 0 -120 62 -120 34 0 44 4 48 19 5 20 8 381 3 381 -2 0 -10 -8 -19 -17z"/>
<path d="M1373 1262 l-53 -47 1 -63 c1 -72 7 -78 73 -68 l44 7 -1 104 c-1 57
-4 106 -7 108 -3 3 -29 -16 -57 -41z"/>
<path d="M494 917 c-2 -7 -3 -62 -2 -123 3 -101 4 -109 23 -109 19 0 20 8 23
114 2 85 -1 117 -10 123 -19 11 -28 10 -34 -5z"/>
<path d="M857 753 c-2 -5 -1 -19 4 -33 7 -23 7 -23 8 8 1 31 -3 40 -12 25z"/>
<path d="M2501 753 c0 -4 4 -17 9 -28 8 -19 9 -19 9 2 1 12 -3 25 -9 28 -5 3
-10 3 -9 -2z"/>
</g>
</svg>
